<svg id="Layer_1" data-name="Layer 1" xmlns="http://www.w3.org/2000/svg" viewBox="0 0 719.41 305.49"><defs><style>.cls-1{fill:#424687;}.cls-2{fill:#5b62a3;}.cls-3{fill:#fff;}</style></defs><path class="cls-1" d="M867.39,437.1c25.18,7.43,32.31,16.85,32.3,42.72,0,58.45.07,116.9-.09,175.35-.06,20.45-11.74,34.87-29.53,37.23a70,70,0,0,1-9.17.34q-156.52,0-313,0c-23.34,0-37.3-13.71-37.33-36.88q-.13-91.35,0-182.69c0-20.56,14.44-35.1,35.12-35.57,13.46-.3,26.92-.37,40.37-.55a211.33,211.33,0,0,1,32.73-2.83q116.39,0,232.78,0C856.93,434.22,862.6,433.38,867.39,437.1Z" transform="translate(-180.3 -387.26)"/><path class="cls-2" d="M867.39,437.1,586,437c22-6.29,44.73-9.65,67.12-14.36,40.35-8.49,80.84-16.39,121.27-24.54,17.37-3.5,34.68-7.36,52.13-10.37,17.07-2.95,31.87,7.58,36.06,25.08C864.5,420.84,865.81,429,867.39,437.1Z" transform="translate(-180.3 -387.26)"/><path class="cls-3" d="M625.62,539.06q0,21.15-13.22,32.36t-37.6,11.2h-9.44a2.48,2.48,0,0,0-2.48,2.48v41.65a2.48,2.48,0,0,1-2.47,2.48H537.57a2.48,2.48,0,0,1-2.47-2.48V500.67a2.48,2.48,0,0,1,2.47-2.48H577q23.85,0,36.26,10.26T625.62,539.06Zm-62.74,18.32a2.47,2.47,0,0,0,2.48,2.47H572q12.83,0,19.19-5.06t6.36-14.74q0-9.78-5.33-14.43T575.52,521H565.36a2.48,2.48,0,0,0-2.48,2.48Z" transform="translate(-180.3 -387.26)"/><path class="cls-3" d="M730.05,627.47l-8.44-27.68a2.47,2.47,0,0,0-2.37-1.75h-44.1a2.48,2.48,0,0,0-2.37,1.75l-8.43,27.68a2.49,2.49,0,0,1-2.37,1.76H637.36a2.48,2.48,0,0,1-2.33-3.3l44.51-126.62a2.45,2.45,0,0,1,2.33-1.66h30.46a2.47,2.47,0,0,1,2.34,1.65l44.68,126.63a2.47,2.47,0,0,1-2.33,3.3H732.41A2.47,2.47,0,0,1,730.05,627.47Zm-19-52.74a2.48,2.48,0,0,0,2.37-3.21q-12.24-39.4-13.84-44.74l0-.11a2.47,2.47,0,0,0-4.75,0q-4.11,14.3-13.54,44.85a2.48,2.48,0,0,0,2.36,3.21Z" transform="translate(-180.3 -387.26)"/><path class="cls-3" d="M820,547.77l24.43-48.22a2.46,2.46,0,0,1,2.21-1.36H870.9a2.47,2.47,0,0,1,2.17,3.66l-41.18,75.83a2.41,2.41,0,0,0-.3,1.18v47.89a2.48,2.48,0,0,1-2.47,2.48H806.46a2.48,2.48,0,0,1-2.48-2.48v-47a2.54,2.54,0,0,0-.29-1.18l-41.22-76.73a2.48,2.48,0,0,1,2.19-3.65H789.1a2.49,2.49,0,0,1,2.22,1.36l24.26,48.22A2.49,2.49,0,0,0,820,547.77Z" transform="translate(-180.3 -387.26)"/><path class="cls-1" d="M381,569.47q0,37.95-12.44,56.18t-38.29,18.23q-25.08,0-37.8-18.83t-12.74-55.58q0-38.36,12.39-56.53t38.15-18.18q25.07,0,37.89,19T381,569.47Zm-70.85,0q0,26.65,4.61,38.19t15.51,11.55q10.69,0,15.45-11.7t4.76-38q0-26.65-4.81-38.3t-15.4-11.64q-10.8,0-15.46,11.64T310.14,569.47Z" transform="translate(-180.3 -387.26)"/><path class="cls-1" d="M493.36,569.47q0,37.95-12.43,56.18t-38.3,18.23q-25.06,0-37.8-18.83T392.1,569.47q0-38.36,12.39-56.53t38.14-18.18q25.06,0,37.9,19T493.36,569.47Zm-70.84,0q0,26.65,4.61,38.19t15.5,11.55q10.71,0,15.46-11.7t4.76-38q0-26.65-4.81-38.3t-15.41-11.64q-10.8,0-15.45,11.64T422.52,569.47Z" transform="translate(-180.3 -387.26)"/><rect class="cls-1" x="43.92" y="71.76" width="31.44" height="28.44"/><polygon class="cls-1" points="75.36 107.51 75.36 256.62 43.16 256.62 43.16 129.78 0 129.78 0 107.51 75.36 107.51"/></svg>