<svg id="Norton_Secure_Seal-01" data-name="Norton Secure Seal-01" xmlns="http://www.w3.org/2000/svg" width="64.343" height="34.744" viewBox="0 0 64.343 34.744" data-v-b7cbdcf2=""><path id="Path_15" data-name="Path 15" d="M18.618,26.1a10.008,10.008,0,1,0,0,20.016H60.332a10.008,10.008,0,1,0,0-20.016Z" transform="translate(-6.85 -20.765)" fill="#fff"></path><path id="Path_16" data-name="Path 16" d="M57.017,43.651H15.3a10.86,10.86,0,0,1,0-21.721H57.015a10.86,10.86,0,0,1,0,21.721M15.3,22.782a10.008,10.008,0,0,0,0,20.016H57.015a10.008,10.008,0,0,0,0-20.016Z" transform="translate(-3.532 -17.447)" fill="#c7c8ca"></path><path id="Path_17" data-name="Path 17" d="M225.753,45.33a2.932,2.932,0,1,0,2.933,2.933,2.935,2.935,0,0,0-2.933-2.933m0,4.438a1.5,1.5,0,1,1,1.5-1.5,1.5,1.5,0,0,1-1.5,1.5" transform="translate(-177.273 -36.064)" fill="#231f20"></path><path id="Path_18" data-name="Path 18" d="M159.961,45.33a2.932,2.932,0,1,0,2.933,2.933,2.933,2.933,0,0,0-2.933-2.933m0,4.438a1.5,1.5,0,1,1,1.5-1.5,1.5,1.5,0,0,1-1.5,1.5" transform="translate(-124.931 -36.064)" fill="#231f20"></path><path id="Path_19" data-name="Path 19" d="M194.691,44.129a2.971,2.971,0,0,1-.576.106c-.5,0-.611-.174-.611-.652v-2.71h1.2V39.741h-1.2v-1.6h-1.349l-.284,1.6h-1.016a1.932,1.932,0,0,0-1.719,1.206l-.468-1.208H187.7v5.627h1.654V42.917a1.824,1.824,0,0,1,1.592-2.046h.9v2.8a1.571,1.571,0,0,0,1.774,1.807,3.991,3.991,0,0,0,1.263-.206l-.194-1.143Z" transform="translate(-149.332 -30.344)" fill="#231f20"></path><path id="Path_20" data-name="Path 20" d="M255.059,47.76v3.847H253.45V45.98h.975l.327.859" transform="translate(-201.642 -36.581)" fill="#231f20"></path><path id="Path_21" data-name="Path 21" d="M259.79,46.328a2.605,2.605,0,0,1,1.94-1,1.88,1.88,0,0,1,1.891,2.058v3.7h-1.656V47.437a.764.764,0,0,0-.836-.744,1.365,1.365,0,0,0-1.024.55" transform="translate(-206.686 -36.064)" fill="#231f20"></path><path id="Path_22" data-name="Path 22" d="M125.47,36.01h1.842l2.531,4.82V36.01h1.527v7.665H129.7l-2.7-5.3v5.3H125.47Z" transform="translate(-99.823 -28.649)" fill="#231f20"></path><path id="Path_23" data-name="Path 23" d="M298.1,21.93V22.2h-.4v1.351h-.313V22.2h-.395V21.93Z" transform="translate(-236.282 -17.447)" fill="#a7a9ac"></path><path id="Path_24" data-name="Path 24" d="M303.52,23.555V21.93h.423l.282,1.065.286-1.065h.429v1.625h-.26V22.284h-.006l-.329,1.271h-.229l-.331-1.271h-.008v1.271Z" transform="translate(-241.477 -17.447)" fill="#a7a9ac"></path><path id="Path_25" data-name="Path 25" d="M123.22,89.38l.382-.595a2.281,2.281,0,0,0,1.345.444c.568,0,.893-.251.893-.685,0-.5-.431-.632-1.139-.879-.636-.223-1.259-.544-1.259-1.443,0-.844.664-1.3,1.56-1.3a2.641,2.641,0,0,1,1.386.325l-.307.634a2.289,2.289,0,0,0-1.065-.258c-.5,0-.8.188-.8.583,0,.464.345.583,1,.8.679.221,1.427.536,1.427,1.531,0,.844-.6,1.4-1.684,1.4a2.829,2.829,0,0,1-1.74-.548" transform="translate(-98.032 -67.561)" fill="#a7a9ac"></path><path id="Path_26" data-name="Path 26" d="M147.07,85.28h2.9v.675h-2.073v1.329h1.637v.66h-1.637v1.535h2.2v.673H147.07Z" transform="translate(-117.007 -67.848)" fill="#a7a9ac"></path><path id="Path_27" data-name="Path 27" d="M167.622,87.434c0-1.421.681-2.514,2.038-2.514a1.778,1.778,0,0,1,1.427.587l-.48.556a1.215,1.215,0,0,0-.934-.423c-.8,0-1.165.652-1.165,1.858,0,1.13.388,1.7,1.173,1.7a1.36,1.36,0,0,0,1.01-.513l.484.542a1.83,1.83,0,0,1-1.5.7c-1.4,0-2.052-1.067-2.052-2.5" transform="translate(-133.357 -67.561)" fill="#a7a9ac"></path><path id="Path_28" data-name="Path 28" d="M191.582,88.287V85.28h.83v3.14c0,.67.166,1.108.873,1.108s.873-.437.873-1.108V85.28H195v3.007c0,1.206-.464,1.928-1.719,1.928s-1.7-.722-1.7-1.928" transform="translate(-152.419 -67.848)" fill="#a7a9ac"></path><path id="Path_29" data-name="Path 29" d="M219.818,90.161h-.9l-.934-2.067h-.769v2.067h-.824V85.29h1.588c.983,0,1.752.354,1.752,1.421a1.27,1.27,0,0,1-.922,1.267l1.012,2.183Zm-1.87-2.7c.617,0,.934-.2.934-.762s-.323-.734-.887-.734h-.783v1.5h.734Z" transform="translate(-172.157 -67.856)" fill="#a7a9ac"></path><path id="Path_30" data-name="Path 30" d="M240.06,85.28h2.9v.675h-2.075v1.329h1.635v.66h-1.635v1.535h2.2v.673H240.06Z" transform="translate(-190.989 -67.848)" fill="#a7a9ac"></path><path id="Path_31" data-name="Path 31" d="M261.65,85.28h1.216a2.438,2.438,0,0,1,.043,4.871h-1.257V85.28Zm1.169,4.2c1.137,0,1.525-.525,1.525-1.78,0-1.1-.3-1.746-1.423-1.746h-.444v3.526h.339Z" transform="translate(-208.166 -67.848)" fill="#a7a9ac"></path><path id="Path_32" data-name="Path 32" d="M11.719,41.176A11.718,11.718,0,1,1,23.436,29.457,11.733,11.733,0,0,1,11.719,41.176m0-19.73a8.008,8.008,0,1,0,5.662,2.345,7.974,7.974,0,0,0-5.662-2.345" transform="translate(0 -14.114)" fill="#ffc20e"></path><rect id="Rectangle_15" data-name="Rectangle 15" width="0.914" height="0.914" transform="translate(24.482 1.821)" fill="#ffc20e"></rect><rect id="Rectangle_16" data-name="Rectangle 16" width="0.914" height="0.916" transform="translate(24.482)" fill="#ffc20e"></rect><rect id="Rectangle_17" data-name="Rectangle 17" width="0.852" height="0.891" transform="translate(21.913 2.729)" fill="#ffc20e"></rect><rect id="Rectangle_18" data-name="Rectangle 18" width="0.861" height="0.852" transform="translate(20.22 4.481)" fill="#231f20"></rect><rect id="Rectangle_19" data-name="Rectangle 19" width="0.957" height="0.859" transform="translate(22.765 3.62)" fill="#231f20"></rect><rect id="Rectangle_20" data-name="Rectangle 20" width="0.856" height="0.818" transform="translate(19.364 3.663)" fill="#231f20"></rect><rect id="Rectangle_21" data-name="Rectangle 21" width="0.852" height="0.852" transform="translate(21.913 4.481)" fill="#231f20"></rect><rect id="Rectangle_22" data-name="Rectangle 22" width="0.903" height="0.906" transform="translate(23.579 0.916)" fill="#231f20"></rect><rect id="Rectangle_23" data-name="Rectangle 23" width="1.666" height="0.908" transform="translate(21.913 1.821)" fill="#231f20"></rect><rect id="Rectangle_24" data-name="Rectangle 24" width="0.83" height="1.752" transform="translate(21.081 2.729)" fill="#231f20"></rect><path id="Path_33" data-name="Path 33" d="M46.794,26.09v.861h-.861V26.09H44.507v.619h-.764v.764H44.6v.852h-.854v-.852h-.908v1.335h-.859v.852h-.57v.856h-.628a48.193,48.193,0,0,0-3,5.638c-1.924-2.676-3.416-3.735-4.591-4.119-.634-.19-1.4.5-.345,1.586a19.6,19.6,0,0,1,3.914,6.619c.388.926,2.132,1.071,2.482.127a28.544,28.544,0,0,1,3.1-6.073v-.953h.683v-.861h.717v-1h.856v-.961h-.867v-.873h.867v.873h.848v-.865h.679V28.619h.764V27.9h.736V26.09h-.83Z" transform="translate(-25.713 -20.757)" fill="#231f20"></path><path id="Path_34" data-name="Path 34" d="M22.26,151.809H22.9v.466a1.117,1.117,0,0,1,.948-.525,1.344,1.344,0,0,1,1.3,1.453v.01a1.34,1.34,0,0,1-1.3,1.453,1.139,1.139,0,0,1-.948-.493v1.284H22.26Zm2.244,1.4v-.01a.829.829,0,0,0-.8-.9.842.842,0,0,0-.816.9v.01a.842.842,0,0,0,.816.9.825.825,0,0,0,.8-.9" transform="translate(-17.71 -120.731)" fill="#a7a9ac"></path><path id="Path_35" data-name="Path 35" d="M38.98,153.234v-.01a1.464,1.464,0,0,1,1.5-1.464,1.45,1.45,0,0,1,1.49,1.453v.01a1.463,1.463,0,0,1-1.5,1.457,1.441,1.441,0,0,1-1.484-1.447m2.343,0v-.01a.866.866,0,0,0-.859-.9.846.846,0,0,0-.842.891v.01a.867.867,0,0,0,.854.9.857.857,0,0,0,.848-.891" transform="translate(-31.012 -120.739)" fill="#a7a9ac"></path><path id="Path_36" data-name="Path 36" d="M55.1,152h.658l.562,1.919.619-1.93h.546l.625,1.93L58.685,152h.64l-.916,2.821h-.572l-.625-1.913-.632,1.913h-.572Z" transform="translate(-43.837 -120.922)" fill="#a7a9ac"></path><path id="Path_37" data-name="Path 37" d="M77.39,153.228v-.01a1.389,1.389,0,0,1,1.368-1.457,1.353,1.353,0,0,1,1.341,1.507c0,.057-.006.117-.01.18H78.032a.783.783,0,0,0,.805.711,1.019,1.019,0,0,0,.758-.333l.376.333a1.416,1.416,0,0,1-1.145.525,1.4,1.4,0,0,1-1.437-1.453m2.073-.209a.727.727,0,0,0-.711-.736.756.756,0,0,0-.726.736h1.437Z" transform="translate(-61.571 -120.739)" fill="#a7a9ac"></path><path id="Path_38" data-name="Path 38" d="M93.91,151.829h.642v.632a.993.993,0,0,1,.991-.685v.679h-.037c-.562,0-.955.366-.955,1.108v1.065H93.91v-2.8Z" transform="translate(-74.714 -120.75)" fill="#a7a9ac"></path><path id="Path_39" data-name="Path 39" d="M103.712,153.228v-.01a1.389,1.389,0,0,1,1.368-1.457,1.353,1.353,0,0,1,1.341,1.507c0,.057-.006.117-.01.18h-2.058a.783.783,0,0,0,.805.711,1.019,1.019,0,0,0,.758-.333l.376.333a1.416,1.416,0,0,1-1.145.525,1.4,1.4,0,0,1-1.437-1.453m2.075-.209a.727.727,0,0,0-.711-.736.756.756,0,0,0-.726.736Z" transform="translate(-82.511 -120.739)" fill="#a7a9ac"></path><path id="Path_40" data-name="Path 40" d="M119.52,149.267v-.01a1.337,1.337,0,0,1,1.3-1.453,1.159,1.159,0,0,1,.955.493V146.79h.642v3.872h-.642V150.2a1.12,1.12,0,0,1-.955.525,1.342,1.342,0,0,1-1.3-1.453m2.265,0v-.01a.84.84,0,0,0-.812-.9.826.826,0,0,0-.805.9v.01a.813.813,0,1,0,1.617,0" transform="translate(-95.089 -116.784)" fill="#a7a9ac"></path><path id="Path_41" data-name="Path 41" d="M146.012,150.236v.435h-.642V146.8h.642v1.539a1.117,1.117,0,0,1,.948-.525,1.344,1.344,0,0,1,1.3,1.453v.01a1.34,1.34,0,0,1-1.3,1.453,1.139,1.139,0,0,1-.948-.493m1.6-.963v-.01a.829.829,0,0,0-.8-.9.842.842,0,0,0-.816.9v.01a.842.842,0,0,0,.816.9.825.825,0,0,0,.8-.9" transform="translate(-115.655 -116.792)" fill="#a7a9ac"></path><path id="Path_42" data-name="Path 42" d="M160.986,155.533l.217-.476a.791.791,0,0,0,.376.106c.18,0,.292-.08.4-.323l-1.165-2.8h.683l.8,2.079.726-2.079h.668l-1.114,2.88c-.223.572-.472.785-.922.785a1.3,1.3,0,0,1-.662-.17" transform="translate(-127.939 -120.961)" fill="#a7a9ac"></path><path id="Path_43" data-name="Path 43" d="M184.15,147.58h.722l1.118,2.854,1.114-2.854h.705l-1.543,3.739h-.572Z" transform="translate(-146.508 -117.413)" fill="#a30046"></path><path id="Path_44" data-name="Path 44" d="M202.69,153.228v-.01a1.389,1.389,0,0,1,1.368-1.457,1.353,1.353,0,0,1,1.341,1.507c0,.057-.006.117-.01.18h-2.056a.783.783,0,0,0,.805.711,1.019,1.019,0,0,0,.758-.333l.376.333a1.416,1.416,0,0,1-1.145.525,1.4,1.4,0,0,1-1.437-1.453m2.073-.209a.726.726,0,0,0-.709-.736.756.756,0,0,0-.726.736h1.437Z" transform="translate(-161.258 -120.739)" fill="#a30046"></path><path id="Path_45" data-name="Path 45" d="M219.22,151.829h.642v.632a1,1,0,0,1,.991-.685v.679h-.037c-.562,0-.955.366-.955,1.108v1.065h-.642v-2.8Z" transform="translate(-174.409 -120.75)" fill="#a30046"></path><path id="Path_46" data-name="Path 46" d="M229.77,146.96h.689v.609h-.689ZM229.8,148h.642v2.8H229.8Z" transform="translate(-182.802 -116.92)" fill="#a30046"></path><path id="Path_47" data-name="Path 47" d="M236.3,150.559l.392-.466a1.706,1.706,0,0,0,1.171.482c.4,0,.658-.186.658-.466v-.01c0-.266-.149-.409-.838-.566-.791-.19-1.235-.423-1.235-1.108v-.01a1.134,1.134,0,0,1,1.267-1.075,2.054,2.054,0,0,1,1.347.466l-.35.493a1.684,1.684,0,0,0-1.008-.382c-.382,0-.6.2-.6.439v.01c0,.286.17.413.881.583.785.19,1.192.472,1.192,1.087v.01c0,.695-.546,1.108-1.327,1.108a2.291,2.291,0,0,1-1.547-.593" transform="translate(-187.998 -117.222)" fill="#a30046"></path><path id="Path_48" data-name="Path 48" d="M253.82,146.96h.689v.609h-.689Zm.027,1.038h.642v2.8h-.642Z" transform="translate(-201.936 -116.92)" fill="#a30046"></path><path id="Path_49" data-name="Path 49" d="M260.5,155.143l.239-.482a1.817,1.817,0,0,0,1,.3.782.782,0,0,0,.885-.859v-.217a1.171,1.171,0,0,1-.985.513,1.259,1.259,0,0,1-1.273-1.31v-.01a1.261,1.261,0,0,1,1.273-1.314,1.21,1.21,0,0,1,.981.476v-.419h.642v2.226a1.423,1.423,0,0,1-.356,1.055,1.569,1.569,0,0,1-1.151.376,2.4,2.4,0,0,1-1.251-.335m2.124-2.054v-.01a.784.784,0,0,0-.822-.775.757.757,0,0,0-.8.769v.01a.764.764,0,0,0,.8.775.789.789,0,0,0,.822-.769" transform="translate(-207.139 -120.739)" fill="#a30046"></path><path id="Path_50" data-name="Path 50" d="M278.56,151.817h.642v.435a1,1,0,0,1,.875-.493.962.962,0,0,1,1,1.075v1.782h-.642v-1.59c0-.435-.217-.685-.6-.685a.618.618,0,0,0-.632.695v1.58h-.642Z" transform="translate(-221.619 -120.739)" fill="#a30046"></path></svg>